<svg xmlns="http://www.w3.org/2000/svg" fill="none" viewBox="0 0 351 116">
  <path fill="#172554" d="M50.1563 28.8267C49.8153 25.3892 48.3523 22.7187 45.767 20.8153 43.1818 18.9119 39.6733 17.9602 35.2415 17.9602 32.2301 17.9602 29.6875 18.3863 27.6136 19.2386 25.5398 20.0625 23.9489 21.213 22.8409 22.6903 21.7614 24.1676 21.2216 25.8437 21.2216 27.7187 21.1648 29.2812 21.4915 30.6449 22.2017 31.8096 22.9403 32.9744 23.9489 33.9829 25.2273 34.8352 26.5057 35.6591 27.983 36.3835 29.6591 37.0085 31.3352 37.6051 33.125 38.1164 35.0284 38.5426L42.8693 40.4176C46.6761 41.2699 50.1705 42.4062 53.3523 43.8267 56.5341 45.2471 59.2898 46.9943 61.6193 49.0681 63.9489 51.142 65.7528 53.5852 67.0312 56.3977 68.3381 59.2102 69.0057 62.4346 69.0341 66.071 69.0057 71.4119 67.642 76.0426 64.9432 79.963 62.2727 83.8551 58.4091 86.8807 53.3523 89.0397 48.3239 91.1704 42.2585 92.2358 35.1563 92.2358 28.1108 92.2358 21.9744 91.1562 16.7472 88.9971 11.5483 86.838 7.4858 83.642 4.5597 79.4091 1.6619 75.1477.142 69.8778 0 63.5994H17.8551C18.054 66.5255 18.892 68.9687 20.3693 70.9289 21.875 72.8608 23.8778 74.3238 26.3778 75.3182 28.9062 76.2841 31.7614 76.767 34.9432 76.767 38.0682 76.767 40.7812 76.3125 43.0824 75.4034 45.4119 74.4943 47.2159 73.2301 48.4943 71.6108 49.7727 69.9914 50.4119 68.1307 50.4119 66.0284 50.4119 64.0682 49.8295 62.4204 48.6648 61.0852 47.5284 59.75 45.8523 58.6136 43.6364 57.6761 41.4489 56.7386 38.7642 55.8863 35.5824 55.1193L26.0795 52.7329C18.7216 50.9431 12.9119 48.1449 8.6506 44.338 4.3892 40.5312 2.2727 35.4034 2.3011 28.9545 2.2727 23.6704 3.679 19.0539 6.5199 15.1051 9.3892 11.1562 13.3239 8.0738 18.3239 5.8579 23.3239 3.642 29.0057 2.5341 35.3693 2.5341 41.8466 2.5341 47.5 3.642 52.3295 5.8579 57.1875 8.0738 60.9659 11.1562 63.6648 15.1051 66.3636 19.0539 67.7557 23.6278 67.8409 28.8267H50.1563ZM81.1044 115.545V25.5454H99.0021V36.5397H99.8118C100.607 34.7784 101.758 32.9886 103.263 31.1704 104.798 29.3238 106.786 27.7897 109.229 26.5682 111.701 25.3182 114.769 24.6932 118.434 24.6932 123.207 24.6932 127.61 25.9432 131.644 28.4432 135.678 30.9147 138.903 34.6505 141.317 39.6505 143.732 44.6221 144.94 50.8579 144.94 58.3579 144.94 65.6591 143.761 71.8238 141.403 76.8522 139.073 81.8522 135.891 85.6449 131.857 88.2301 127.852 90.7869 123.363 92.0653 118.391 92.0653 114.869 92.0653 111.871 91.4829 109.4 90.3182 106.957 89.1534 104.954 87.6903 103.391 85.9289 101.829 84.1392 100.636 82.3352 99.8118 80.517H99.2578V115.545H81.1044ZM98.8743 58.2727C98.8743 62.1647 99.4141 65.5596 100.494 68.4574 101.573 71.3551 103.136 73.6136 105.181 75.2329 107.227 76.8238 109.712 77.6193 112.638 77.6193 115.593 77.6193 118.093 76.8096 120.138 75.1903 122.184 73.5426 123.732 71.2699 124.783 68.3721 125.863 65.446 126.403 62.0795 126.403 58.2727 126.403 54.4943 125.877 51.1704 124.826 48.3011 123.775 45.4318 122.227 43.1875 120.181 41.5681 118.136 39.9488 115.621 39.1392 112.638 39.1392 109.684 39.1392 107.184 39.9204 105.138 41.4829 103.121 43.0454 101.573 45.2613 100.494 48.1306 99.4141 51 98.8743 54.3807 98.8743 58.2727ZM175.707 92.2358C171.531 92.2358 167.809 91.5113 164.542 90.0625 161.275 88.5852 158.69 86.4119 156.786 83.5426 154.911 80.6449 153.974 77.0369 153.974 72.7187 153.974 69.0824 154.641 66.0284 155.977 63.5568 157.312 61.0852 159.13 59.0966 161.431 57.5909 163.732 56.0852 166.346 54.9488 169.272 54.1818 172.227 53.4147 175.323 52.875 178.562 52.5625 182.369 52.1647 185.437 51.7954 187.766 51.4545 190.096 51.0852 191.786 50.5454 192.837 49.8352 193.888 49.125 194.414 48.0738 194.414 46.6818V46.4261C194.414 43.7272 193.562 41.6392 191.857 40.1619 190.181 38.6846 187.795 37.946 184.698 37.946 181.431 37.946 178.832 38.6704 176.9 40.1193 174.968 41.5397 173.69 43.3295 173.065 45.4886L156.275 44.125C157.127 40.1477 158.803 36.7102 161.303 33.8125 163.803 30.8863 167.028 28.642 170.977 27.0795 174.954 25.4886 179.556 24.6932 184.783 24.6932 188.42 24.6932 191.9 25.1193 195.224 25.9716 198.576 26.8238 201.545 28.1449 204.13 29.9346 206.744 31.7244 208.803 34.0255 210.309 36.838 211.815 39.6221 212.567 42.9602 212.567 46.8522V91H195.352V81.9233H194.84C193.789 83.9687 192.383 85.7727 190.621 87.3352 188.86 88.8693 186.744 90.0767 184.272 90.9574 181.8 91.8096 178.945 92.2358 175.707 92.2358ZM180.906 79.7074C183.576 79.7074 185.934 79.1818 187.979 78.1307 190.025 77.0511 191.63 75.6022 192.795 73.7841 193.96 71.9659 194.542 69.9062 194.542 67.6051V60.6591C193.974 61.0284 193.192 61.3693 192.198 61.6818 191.232 61.9659 190.138 62.2358 188.917 62.4914 187.695 62.7187 186.474 62.9318 185.252 63.1306 184.031 63.3011 182.923 63.4574 181.928 63.5994 179.798 63.9119 177.937 64.4091 176.346 65.0909 174.755 65.7727 173.519 66.696 172.638 67.8608 171.758 68.9971 171.317 70.4176 171.317 72.1221 171.317 74.5937 172.212 76.4829 174.002 77.7897 175.82 79.0682 178.121 79.7074 180.906 79.7074ZM226.651 91V25.5454H244.251V36.9659H244.933C246.126 32.9034 248.129 29.8352 250.941 27.7613 253.754 25.6591 256.992 24.6079 260.657 24.6079 261.566 24.6079 262.546 24.6647 263.597 24.7784 264.648 24.892 265.572 25.0483 266.367 25.2471V41.3551C265.515 41.0994 264.336 40.8721 262.83 40.6733 261.325 40.4744 259.947 40.375 258.697 40.375 256.026 40.375 253.64 40.9574 251.538 42.1221 249.464 43.2585 247.816 44.8494 246.594 46.8949 245.401 48.9403 244.805 51.2983 244.805 53.9687V91H226.651ZM275.753 91V47.3636 3.7272H293.906V91H275.753ZM294.886 50.3892H293.906V72L299.095 65 316.662 91H337.926L312.354 53.9687 336.69 25.5454H315.852L294.886 50.3892Z"/>
  <path fill="#2563EB" d="M336 0L351 17H321.227L336 0Z"/>
</svg>
