<svg xmlns="http://www.w3.org/2000/svg" fill="none" viewBox="0 0 120 39">
  <path fill="#fff" d="M17.1853 9.9804C17.0685 8.8499 16.5672 7.9716 15.6814 7.3456 14.7956 6.7197 13.5934 6.4067 12.075 6.4067 11.0432 6.4067 10.172 6.5468 9.4614 6.8271 8.7508 7.098 8.2057 7.4764 7.8261 7.9623 7.4562 8.4481 7.2713 8.9994 7.2713 9.616 7.2518 10.1299 7.3637 10.5783 7.6071 10.9614 7.8602 11.3445 8.2057 11.6761 8.6437 11.9564 9.0818 12.2274 9.5879 12.4656 10.1622 12.6712 10.7365 12.8674 11.3498 13.0355 12.0019 13.1757L14.6885 13.7923C15.9929 14.0726 17.1901 14.4463 18.2803 14.9135 19.3705 15.3806 20.3147 15.9552 21.1129 16.6373 21.9111 17.3193 22.5292 18.1228 22.9672 19.0478 23.415 19.9728 23.6437 21.0332 23.6535 22.2291 23.6437 23.9856 23.1765 25.5085 22.2518 26.7978 21.3368 28.0778 20.013 29.0729 18.2803 29.7829 16.5574 30.4837 14.4792 30.834 12.0457 30.834 9.6317 30.834 7.5292 30.479 5.7382 29.7689 3.9569 29.0589 2.5649 28.0078 1.5623 26.6157.5694 25.2142.0487 23.4811 0 21.4163H6.1178C6.1859 22.3786 6.4731 23.1821 6.9792 23.8268 7.4951 24.4621 8.1814 24.9432 9.038 25.2703 9.9043 25.5879 10.8825 25.7467 11.9727 25.7467 13.0435 25.7467 13.9731 25.5973 14.7615 25.2983 15.5597 24.9993 16.1778 24.5835 16.6158 24.051 17.0539 23.5184 17.2729 22.9065 17.2729 22.2151 17.2729 21.5704 17.0733 21.0285 16.6742 20.5894 16.2849 20.1503 15.7106 19.7765 14.9513 19.4682 14.2018 19.1599 13.282 18.8796 12.1918 18.6274L8.9358 17.8425C6.4147 17.2539 4.4241 16.3336 2.964 15.0817 1.5039 13.8297.7787 12.1433.7884 10.0224.7787 8.2846 1.2606 6.7664 2.2339 5.4677 3.2171 4.169 4.5652 3.1553 6.2784 2.4265 7.9916 1.6978 9.9384 1.3334 12.1188 1.3334 14.3381 1.3334 16.2751 1.6978 17.9299 2.4265 19.5944 3.1553 20.889 4.169 21.8138 5.4677 22.7385 6.7664 23.2154 8.2706 23.2446 9.9804H17.1853ZM27.7892 38.5V8.9012H33.9216V12.517H34.199C34.4715 11.9377 34.8657 11.3491 35.3816 10.7512 35.9073 10.1439 36.5887 9.6394 37.4258 9.2376 38.2726 8.8265 39.3239 8.621 40.5796 8.621 42.2149 8.621 43.7236 9.0321 45.1059 9.8542 46.4881 10.6671 47.5929 11.8957 48.4203 13.5401 49.2476 15.1751 49.6613 17.2259 49.6613 19.6925 49.6613 22.0936 49.2574 24.1211 48.4495 25.7748 47.6513 27.4192 46.5611 28.6665 45.1789 29.5167 43.8064 30.3575 42.2684 30.778 40.565 30.778 39.358 30.778 38.331 30.5864 37.4842 30.2034 36.6471 29.8203 35.9608 29.3391 35.4255 28.7599 34.8901 28.1713 34.4813 27.578 34.199 26.98H34.0092V38.5H27.7892ZM33.8778 19.6644C33.8778 20.9444 34.0627 22.0609 34.4326 23.0139 34.8025 23.9669 35.3378 24.7097 36.0387 25.2422 36.7395 25.7654 37.5913 26.027 38.5938 26.027 39.6062 26.027 40.4628 25.7608 41.1636 25.2282 41.8645 24.6863 42.395 23.9389 42.7551 22.9859 43.125 22.0236 43.3099 20.9164 43.3099 19.6644 43.3099 18.4218 43.1299 17.3287 42.7697 16.385 42.4096 15.4414 41.8791 14.7033 41.1782 14.1707 40.4774 13.6382 39.6159 13.3719 38.5938 13.3719 37.5815 13.3719 36.7249 13.6288 36.0241 14.1427 35.333 14.6566 34.8025 15.3853 34.4326 16.329 34.0627 17.2726 33.8778 18.3844 33.8778 19.6644ZM60.2032 30.834C58.7723 30.834 57.4972 30.5958 56.3778 30.1193 55.2583 29.6335 54.3726 28.9187 53.7204 27.9751 53.0779 27.0221 52.7567 25.8355 52.7567 24.4154 52.7567 23.2195 52.9855 22.2151 53.443 21.4022 53.9005 20.5894 54.5234 19.9354 55.3119 19.4402 56.1003 18.945 56.9959 18.5713 57.9985 18.319 59.0108 18.0668 60.0718 17.8893 61.1815 17.7865 62.4858 17.6557 63.5371 17.5342 64.3352 17.4221 65.1334 17.3006 65.7126 17.1231 66.0728 16.8895 66.4329 16.656 66.613 16.3103 66.613 15.8525V15.7684C66.613 14.8808 66.321 14.1941 65.7369 13.7082 65.1626 13.2224 64.345 12.9795 63.284 12.9795 62.1646 12.9795 61.2739 13.2177 60.612 13.6942 59.9501 14.1614 59.5121 14.75 59.2979 15.4601L53.5452 15.0116C53.8372 13.7036 54.4115 12.5731 55.2681 11.6201 56.1247 10.6577 57.2295 9.9196 58.5825 9.4058 59.9452 8.8826 61.5221 8.621 63.3132 8.621 64.5591 8.621 65.7515 8.7611 66.8904 9.0414 68.039 9.3217 69.0562 9.7561 69.942 10.3447 70.8375 10.9334 71.5432 11.6901 72.0591 12.6151 72.575 13.5307 72.833 14.6285 72.833 15.9085V30.4276H66.9342V27.4425H66.759C66.3988 28.1152 65.917 28.7085 65.3135 29.2224 64.71 29.7269 63.9848 30.124 63.138 30.4136 62.2911 30.6939 61.3129 30.834 60.2032 30.834ZM61.9845 26.7138C62.8995 26.7138 63.7074 26.5409 64.4083 26.1952 65.1091 25.8402 65.6591 25.3637 66.0582 24.7657 66.4572 24.1678 66.6568 23.4904 66.6568 22.7336V20.4492C66.4621 20.5707 66.1944 20.6828 65.8537 20.7856 65.5228 20.879 65.148 20.9678 64.7295 21.0519 64.3109 21.1266 63.8924 21.1967 63.4738 21.2621 63.0552 21.3181 62.6756 21.3695 62.3349 21.4163 61.6049 21.519 60.9673 21.6825 60.4222 21.9068 59.8771 22.131 59.4537 22.4346 59.1519 22.8177 58.8502 23.1914 58.6993 23.6586 58.6993 24.2192 58.6993 25.032 59.0059 25.6533 59.6192 26.0831 60.2421 26.5035 61.0306 26.7138 61.9845 26.7138ZM77.6586 30.4276V8.9012H83.6888V12.6572H83.9224C84.3312 11.3211 85.0174 10.312 85.9811 9.63 86.9448 8.9386 88.0544 8.5929 89.3101 8.5929 89.6216 8.5929 89.9574 8.6116 90.3176 8.649 90.6777 8.6864 90.9941 8.7378 91.2666 8.8032V14.1007C90.9746 14.0166 90.5706 13.9418 90.0547 13.8764 89.5388 13.811 89.0668 13.7783 88.6385 13.7783 87.7235 13.7783 86.9058 13.9698 86.1855 14.3529 85.4749 14.7266 84.9104 15.2498 84.4918 15.9225 84.083 16.5952 83.8786 17.3707 83.8786 18.249V30.4276H77.6586ZM94.4825 30.4276V16.0767 1.7258H100.702V30.4276H94.4825ZM101.038 17.0717H100.702V24.179L102.48 21.8769 108.499 30.4276H115.785L107.023 18.249 115.362 8.9012H108.222L101.038 17.0717ZM115.032.5 120 6.0909H110.064L115.032.5Z"/>
</svg>
