<svg width="160" height="44" viewBox="0 0 160 44" fill="none" xmlns="http://www.w3.org/2000/svg">
<path d="M29.0675 10.361C29.0675 12.2895 28.3869 13.9571 27.0256 15.3638C25.6643 16.7478 23.679 17.7461 21.0699 18.3586C22.4765 18.7443 23.5429 19.3796 24.2689 20.2645C24.9949 21.1266 25.358 22.1249 25.358 23.2593C25.358 25.0517 24.7908 26.6058 23.6563 27.9218C22.5446 29.2377 20.911 30.2587 18.7557 30.9847C16.6003 31.688 14.0025 32.0397 10.9622 32.0397C9.8278 32.0397 8.92026 32.0057 8.23961 31.9376C8.21693 32.5729 7.94467 33.0493 7.42284 33.367C6.901 33.6846 6.2317 33.8434 5.41492 33.8434C4.59814 33.8434 4.03093 33.6619 3.71329 33.2989C3.41835 32.9359 3.29356 32.4027 3.33894 31.6994C3.54313 28.523 3.94018 25.1992 4.53007 21.7279C5.11997 18.2338 5.86869 14.8646 6.77622 11.6202C6.93504 11.053 7.25267 10.6559 7.72913 10.4291C8.20558 10.2022 8.82951 10.0887 9.60092 10.0887C10.9849 10.0887 11.6769 10.4744 11.6769 11.2458C11.6769 11.5635 11.6088 11.9265 11.4727 12.3349C10.8828 14.1046 10.2929 16.5095 9.70301 19.5498C9.11312 22.5673 8.69338 25.4487 8.44381 28.194C9.53285 28.2848 10.4177 28.3302 11.0983 28.3302C14.2747 28.3302 16.6003 27.8764 18.075 26.9689C19.5724 26.0386 20.3212 24.8588 20.3212 23.4295C20.3212 22.4312 19.8901 21.5917 19.0279 20.9111C18.1884 20.2304 16.7704 19.8561 14.7739 19.788C14.3201 19.7653 14.0025 19.6519 13.8209 19.4477C13.6394 19.2435 13.5487 18.9145 13.5487 18.4607C13.5487 17.8028 13.6848 17.2696 13.9571 16.8612C14.2293 16.4528 14.7285 16.2373 15.4545 16.2146C17.0654 16.1692 18.5174 15.931 19.8107 15.4999C21.1266 15.0688 22.1589 14.4676 22.9076 13.6962C23.6563 12.9021 24.0307 11.9832 24.0307 10.9395C24.0307 9.62363 23.3841 8.59131 22.0908 7.84259C20.7976 7.07119 18.8124 6.68549 16.1352 6.68549C13.7075 6.68549 11.3593 7.00312 9.09043 7.6384C6.82159 8.25098 4.89309 9.03373 3.3049 9.98664C2.57888 10.4177 1.96629 10.6333 1.46715 10.6333C1.05876 10.6333 0.741123 10.4971 0.514239 10.2249C0.310044 9.92992 0.207947 9.56691 0.207947 9.13583C0.207947 8.56862 0.321388 8.08082 0.548272 7.67243C0.797843 7.26404 1.3764 6.79893 2.28393 6.2771C4.18975 5.18806 6.42455 4.33724 8.98833 3.72466C11.5521 3.11207 14.1726 2.80578 16.8498 2.80578C20.9564 2.80578 24.0194 3.49778 26.0386 4.88176C28.0579 6.26575 29.0675 8.09216 29.0675 10.361ZM31.0624 32.312C30.2003 32.312 29.5877 31.8582 29.2247 30.9507C28.8843 30.0431 28.7142 28.5911 28.7142 26.5945C28.7142 23.645 29.1339 20.843 29.9734 18.1885C30.1776 17.5305 30.5066 17.0541 30.9603 16.7591C31.4368 16.4415 32.0947 16.2827 32.9342 16.2827C33.388 16.2827 33.7056 16.3394 33.8871 16.4528C34.0686 16.5663 34.1594 16.7818 34.1594 17.0994C34.1594 17.4624 33.9892 18.2792 33.6489 19.5498C33.422 20.4573 33.2405 21.2514 33.1044 21.932C32.9682 22.6127 32.8548 23.4522 32.764 24.4505C33.5128 22.4993 34.3522 20.9111 35.2824 19.6859C36.2127 18.4607 37.1202 17.5872 38.005 17.0654C38.9126 16.5436 39.7407 16.2827 40.4894 16.2827C41.9642 16.2827 42.7015 17.02 42.7015 18.4948C42.7015 18.7897 42.5994 19.5044 42.3952 20.6388C42.2137 21.5463 42.123 22.1136 42.123 22.3404C42.123 23.1345 42.4066 23.5316 42.9738 23.5316C43.6091 23.5316 44.4258 23.0324 45.4241 22.0341C45.7191 21.7392 46.0254 21.5917 46.343 21.5917C46.638 21.5917 46.8648 21.7279 47.0237 22.0001C47.2052 22.2497 47.2959 22.59 47.2959 23.0211C47.2959 23.8606 47.069 24.5185 46.6153 24.995C45.98 25.6529 45.2313 26.2201 44.3691 26.6966C43.5297 27.1504 42.6335 27.3772 41.6806 27.3772C40.4781 27.3772 39.5592 27.071 38.9239 26.4584C38.3113 25.8458 38.005 25.0177 38.005 23.974C38.005 23.6337 38.0391 23.2933 38.1071 22.953C38.1525 22.4993 38.1752 22.193 38.1752 22.0341C38.1752 21.6711 38.0504 21.4896 37.8009 21.4896C37.4605 21.4896 37.0068 21.8753 36.4396 22.6467C35.895 23.3954 35.3505 24.3937 34.806 25.6416C34.2615 26.8894 33.8191 28.2054 33.4787 29.5894C33.2292 30.6557 32.9342 31.3817 32.5939 31.7674C32.2762 32.1305 31.7658 32.312 31.0624 32.312ZM48.3195 32.312C46.9128 32.312 45.7897 31.8015 44.9503 30.7805C44.1108 29.7595 43.6911 28.4209 43.6911 26.7647C43.6911 24.9496 44.1108 23.2366 44.9503 21.6258C45.7897 19.9922 46.9015 18.6876 48.2855 17.712C49.6921 16.7137 51.1782 16.2146 52.7437 16.2146C53.2429 16.2146 53.5718 16.3167 53.7307 16.5209C53.9122 16.7024 54.0596 17.0427 54.1731 17.5419C54.6495 17.4511 55.1487 17.4057 55.6705 17.4057C56.7822 17.4057 57.3381 17.8028 57.3381 18.5969C57.3381 19.0733 57.1679 20.2077 56.8276 22.0001C56.3058 24.6093 56.0449 26.4243 56.0449 27.4453C56.0449 27.7856 56.1243 28.0579 56.2831 28.2621C56.4646 28.4663 56.6915 28.5684 56.9637 28.5684C57.3948 28.5684 57.9167 28.2961 58.5292 27.7516C59.1418 27.1844 59.97 26.2769 61.0136 25.029C61.2859 24.7114 61.5922 24.5526 61.9325 24.5526C62.2274 24.5526 62.4543 24.6887 62.6131 24.9609C62.7947 25.2332 62.8854 25.6076 62.8854 26.084C62.8854 26.9915 62.6699 27.6949 62.2388 28.194C61.3086 29.3511 60.3216 30.3267 59.278 31.1208C58.2343 31.9149 57.2247 32.312 56.2491 32.312C55.5003 32.312 54.8084 32.0624 54.1731 31.5632C53.5605 31.0414 53.0954 30.3381 52.7777 29.4532C51.598 31.3591 50.1119 32.312 48.3195 32.312ZM49.5447 28.8747C50.0438 28.8747 50.5203 28.5797 50.974 27.9898C51.4278 27.3999 51.7568 26.6172 51.961 25.6416L53.2202 19.3796C52.2673 19.4023 51.3824 19.7653 50.5656 20.4687C49.7715 21.1493 49.1363 22.0568 48.6598 23.1912C48.1834 24.3257 47.9451 25.5281 47.9451 26.7987C47.9451 27.502 48.0813 28.0239 48.3535 28.3642C48.6485 28.7045 49.0455 28.8747 49.5447 28.8747ZM62.5359 32.312C61.6737 32.312 61.0611 31.8582 60.6981 30.9507C60.3578 30.0431 60.1876 28.5911 60.1876 26.5945C60.1876 23.645 60.6074 20.843 61.4468 18.1885C61.651 17.5305 61.98 17.0541 62.4338 16.7591C62.9102 16.4415 63.5682 16.2827 64.4076 16.2827C64.8614 16.2827 65.1791 16.3394 65.3606 16.4528C65.5421 16.5663 65.6328 16.7818 65.6328 17.0994C65.6328 17.4624 65.4627 18.2792 65.1223 19.5498C64.8954 20.4573 64.7139 21.2514 64.5778 21.932C64.4417 22.6127 64.3282 23.4522 64.2375 24.4505C64.9862 22.4993 65.8257 20.9111 66.7559 19.6859C67.6861 18.4607 68.5936 17.5872 69.4785 17.0654C70.386 16.5436 71.2141 16.2827 71.9629 16.2827C73.4376 16.2827 74.175 17.02 74.175 18.4948C74.175 19.3796 73.9254 20.9791 73.4263 23.2933C72.9952 25.2672 72.7796 26.5718 72.7796 27.2071C72.7796 28.1146 73.1086 28.5684 73.7666 28.5684C74.2203 28.5684 74.7535 28.2961 75.3661 27.7516C76.0014 27.1844 76.8409 26.2769 77.8845 25.029C78.1568 24.7114 78.4631 24.5526 78.8034 24.5526C79.0983 24.5526 79.3252 24.6887 79.484 24.9609C79.6655 25.2332 79.7563 25.6076 79.7563 26.084C79.7563 26.9915 79.5408 27.6949 79.1097 28.194C78.1341 29.3965 77.0791 30.3835 75.9447 31.1549C74.8329 31.9263 73.5624 32.312 72.133 32.312C70.9759 32.312 70.1024 31.983 69.5125 31.325C68.9226 30.6444 68.6277 29.6688 68.6277 28.3982C68.6277 27.763 68.7865 26.6285 69.1041 24.995C69.3991 23.5656 69.5466 22.5787 69.5466 22.0341C69.5466 21.6711 69.4218 21.4896 69.1722 21.4896C68.8772 21.4896 68.4575 21.8753 67.913 22.6467C67.3912 23.3954 66.8466 24.3937 66.2794 25.6416C65.7349 26.8894 65.2925 28.2054 64.9522 29.5894C64.7026 30.6557 64.4076 31.3817 64.0673 31.7674C63.7497 32.1305 63.2392 32.312 62.5359 32.312ZM96.3332 24.5526C96.6281 24.5526 96.855 24.6887 97.0138 24.9609C97.1954 25.2332 97.2861 25.6076 97.2861 26.084C97.2861 26.9915 97.0706 27.6949 96.6395 28.194C95.7093 29.3284 94.6883 30.304 93.5766 31.1208C92.4648 31.9149 91.3645 32.312 90.2754 32.312C88.5511 32.312 87.2352 31.3023 86.3276 29.2831C85.3747 30.4855 84.5353 31.291 83.8092 31.6994C83.1059 32.1078 82.2778 32.312 81.3249 32.312C79.9409 32.312 78.7951 31.8015 77.8876 30.7805C77.0027 29.7368 76.5603 28.3869 76.5603 26.7306C76.5603 24.9156 76.946 23.2366 77.7174 21.6938C78.4888 20.1283 79.5438 18.8578 80.8824 17.8822C82.2437 16.8839 83.7639 16.294 85.4428 16.1125C85.8739 11.711 86.6907 7.95603 87.8931 4.84773C89.1183 1.71674 90.7178 0.151245 92.6917 0.151245C93.6673 0.151245 94.4728 0.593667 95.108 1.47851C95.766 2.36336 96.095 3.70197 96.095 5.49435C96.095 8.03544 95.471 11.0076 94.2232 14.4109C92.9753 17.8141 91.3077 21.3081 89.2204 24.8929C89.3112 26.2088 89.504 27.1504 89.799 27.7176C90.1166 28.2848 90.5136 28.5684 90.9901 28.5684C91.6027 28.5684 92.2266 28.2961 92.8619 27.7516C93.4972 27.2071 94.348 26.2996 95.4143 25.029C95.6866 24.7114 95.9929 24.5526 96.3332 24.5526ZM92.3174 3.48643C91.8863 3.48643 91.4552 4.25784 91.0241 5.80064C90.5931 7.32076 90.2187 9.31733 89.9011 11.7904C89.6061 14.2634 89.3906 16.8499 89.2544 19.5498C91.7955 14.0138 93.0661 9.56691 93.0661 6.20903C93.0661 5.34688 92.9867 4.67757 92.8279 4.20111C92.6917 3.72466 92.5216 3.48643 92.3174 3.48643ZM82.516 28.8747C82.9471 28.8747 83.3782 28.7045 83.8092 28.3642C84.2403 28.0012 84.7848 27.3432 85.4428 26.3903C85.2159 25.1651 85.1025 23.7925 85.1025 22.2724C85.1025 21.7279 85.1252 20.843 85.1705 19.6178C83.9227 20.0035 82.879 20.843 82.0396 22.1362C81.2228 23.4068 80.8144 24.8248 80.8144 26.3903C80.8144 28.0466 81.3816 28.8747 82.516 28.8747ZM108.097 22.6127C108.732 22.6127 109.05 23.0892 109.05 24.0421C109.05 25.8344 107.643 26.7306 104.83 26.7306C104.285 26.7306 103.502 26.6285 102.481 26.4243C102.776 27.831 103.014 29.3965 103.196 31.1208C103.4 32.8224 103.502 34.2291 103.502 35.3409C103.502 37.7912 103.105 39.663 102.311 40.9562C101.517 42.2495 100.473 42.8961 99.1801 42.8961C97.5466 42.8961 96.3781 41.739 95.6748 39.4248C94.9941 37.1105 94.6538 33.6165 94.6538 28.9427C94.6538 24.5866 95.1189 20.1737 96.0491 15.7041C97.002 11.2118 98.2953 7.50227 99.9288 4.57547C101.585 1.62599 103.4 0.151245 105.374 0.151245C106.44 0.151245 107.269 0.6277 107.858 1.58061C108.471 2.53352 108.777 3.81541 108.777 5.42628C108.777 10.758 105.59 16.5663 99.2141 22.8509C98.9873 25.0744 98.8738 27.0256 98.8738 28.7045C98.8738 31.0414 98.9532 33.435 99.112 35.8854C99.2709 38.3584 99.5318 39.5949 99.8948 39.5949C100.575 39.5949 100.916 38.4151 100.916 36.0555C100.916 34.2858 100.791 32.5729 100.541 30.9166C100.315 29.2604 99.9969 27.5134 99.5885 25.6756C99.5658 25.3807 99.6566 25.0063 99.8608 24.5526C100.088 24.0988 100.36 23.7017 100.678 23.3614C100.995 23.0211 101.279 22.8509 101.528 22.8509C101.982 22.8509 102.527 22.8736 103.162 22.919C103.366 22.9417 103.604 22.953 103.877 22.953C104.784 22.953 105.794 22.8736 106.905 22.7148C107.087 22.6921 107.28 22.6694 107.484 22.6467C107.688 22.624 107.892 22.6127 108.097 22.6127ZM104.659 3.52046C104.251 3.52046 103.74 4.21246 103.128 5.59645C102.538 6.98044 101.948 8.81819 101.358 11.1097C100.768 13.3785 100.258 15.7835 99.8267 18.3246C101.642 16.26 103.037 14.1159 104.013 11.8925C104.988 9.64631 105.487 7.54764 105.51 5.59645C105.51 4.21246 105.227 3.52046 104.659 3.52046ZM121.661 24.5526C121.956 24.5526 122.183 24.6887 122.341 24.9609C122.523 25.2332 122.614 25.6076 122.614 26.084C122.614 26.9915 122.398 27.6949 121.967 28.194C121.128 29.215 119.936 30.1566 118.394 31.0187C116.873 31.8809 115.24 32.312 113.493 32.312C111.111 32.312 109.262 31.6653 107.946 30.3721C106.63 29.0789 105.972 27.3092 105.972 25.063C105.972 23.4975 106.301 22.0455 106.959 20.7069C107.617 19.3456 108.524 18.2679 109.681 17.4738C110.861 16.6797 112.188 16.2827 113.663 16.2827C114.979 16.2827 116.034 16.6797 116.828 17.4738C117.622 18.2452 118.019 19.3002 118.019 20.6388C118.019 22.2043 117.452 23.5543 116.318 24.6887C115.206 25.8004 113.311 26.6853 110.634 27.3432C111.201 28.3869 112.279 28.9087 113.867 28.9087C114.888 28.9087 116.045 28.557 117.339 27.8537C118.655 27.1277 119.789 26.1861 120.742 25.029C121.014 24.7114 121.32 24.5526 121.661 24.5526ZM113.085 19.6178C112.245 19.6178 111.53 20.1056 110.94 21.0812C110.373 22.0568 110.09 23.2366 110.09 24.6206V24.6887C111.428 24.371 112.483 23.8946 113.255 23.2593C114.026 22.624 114.412 21.8867 114.412 21.0472C114.412 20.6161 114.287 20.2758 114.037 20.0262C113.811 19.754 113.493 19.6178 113.085 19.6178ZM135.021 24.5526C135.316 24.5526 135.543 24.6887 135.702 24.9609C135.883 25.2332 135.974 25.6076 135.974 26.084C135.974 26.9915 135.758 27.6949 135.327 28.194C134.352 29.3965 133.285 30.3835 132.128 31.1549C130.971 31.9263 129.644 32.312 128.146 32.312C123.518 32.312 121.204 29.0562 121.204 22.5446C121.204 21.5463 121.238 20.5367 121.306 19.5157H119.979C119.298 19.5157 118.833 19.391 118.583 19.1414C118.356 18.8918 118.243 18.4948 118.243 17.9502C118.243 16.6797 118.754 16.0444 119.774 16.0444H121.714C122.1 13.5487 122.69 11.2685 123.484 9.20389C124.278 7.13925 125.231 5.49435 126.343 4.26918C127.477 3.04401 128.691 2.43142 129.984 2.43142C130.937 2.43142 131.686 2.85116 132.23 3.69063C132.775 4.5301 133.047 5.5851 133.047 6.85565C133.047 10.3723 131.572 13.4353 128.623 16.0444H132.435C132.798 16.0444 133.059 16.1238 133.217 16.2827C133.376 16.4415 133.456 16.7364 133.456 17.1675C133.456 18.733 132.174 19.5157 129.61 19.5157H125.458C125.413 20.6502 125.39 21.535 125.39 22.1703C125.39 24.5299 125.662 26.1861 126.207 27.139C126.774 28.0919 127.659 28.5684 128.861 28.5684C129.837 28.5684 130.699 28.2734 131.448 27.6835C132.196 27.0936 133.081 26.2088 134.102 25.029C134.374 24.7114 134.681 24.5526 135.021 24.5526ZM129.065 5.69854C128.725 5.69854 128.339 6.12962 127.908 6.99178C127.5 7.83125 127.103 9.01104 126.717 10.5312C126.354 12.0286 126.048 13.6962 125.798 15.5339C127.137 14.3768 128.135 13.0836 128.793 11.6542C129.474 10.2022 129.814 8.88626 129.814 7.70646C129.814 6.36785 129.565 5.69854 129.065 5.69854ZM139.703 32.312C137.48 32.312 135.744 31.688 134.496 30.4402C133.271 29.1696 132.658 27.502 132.658 25.4374C132.658 23.5996 133.021 21.9888 133.747 20.6048C134.473 19.2208 135.415 18.1544 136.572 17.4057C137.729 16.657 138.943 16.2827 140.214 16.2827C141.461 16.2827 142.426 16.657 143.106 17.4057C143.81 18.1318 144.161 19.0733 144.161 20.2304C144.161 21.1833 143.946 21.9888 143.515 22.6467C143.106 23.3047 142.562 23.6337 141.881 23.6337C141.45 23.6337 141.098 23.5316 140.826 23.3274C140.577 23.1232 140.452 22.8396 140.452 22.4766C140.452 22.3177 140.475 22.1362 140.52 21.932C140.565 21.7279 140.599 21.5804 140.622 21.4896C140.735 21.1493 140.792 20.8317 140.792 20.5367C140.792 20.2418 140.713 20.0149 140.554 19.8561C140.418 19.6972 140.214 19.6178 139.941 19.6178C139.42 19.6178 138.932 19.8561 138.478 20.3325C138.024 20.7863 137.661 21.4102 137.389 22.2043C137.117 22.9984 136.981 23.8719 136.981 24.8248C136.981 27.4567 138.126 28.7726 140.418 28.7726C141.348 28.7726 142.346 28.4663 143.413 27.8537C144.502 27.2184 145.568 26.2769 146.612 25.029C146.884 24.7114 147.19 24.5526 147.531 24.5526C147.826 24.5526 148.052 24.6887 148.211 24.9609C148.393 25.2332 148.484 25.6076 148.484 26.084C148.484 26.9462 148.268 27.6495 147.837 28.194C146.771 29.51 145.489 30.5309 143.991 31.257C142.516 31.9603 141.087 32.312 139.703 32.312ZM157.78 16.2827C158.506 16.2827 159.051 16.4755 159.414 16.8612C159.799 17.2242 159.992 17.7687 159.992 18.4948C159.992 19.0847 159.867 20.1964 159.618 21.8299C159.391 23.2139 159.209 24.5299 159.073 25.7777C158.937 27.0029 158.869 28.3755 158.869 29.8957C158.869 30.7578 158.688 31.3817 158.325 31.7674C157.984 32.1305 157.417 32.312 156.623 32.312C155.874 32.312 155.33 32.1191 154.989 31.7334C154.649 31.3477 154.479 30.7692 154.479 29.9978C154.479 29.0902 154.638 27.5928 154.955 25.5055C155.228 23.6904 155.364 22.5333 155.364 22.0341C155.364 21.6711 155.239 21.4896 154.989 21.4896C154.694 21.4896 154.275 21.8753 153.73 22.6467C153.186 23.3954 152.641 24.3937 152.097 25.6416C151.552 26.8894 151.11 28.2054 150.769 29.5894C150.52 30.6557 150.225 31.3817 149.885 31.7674C149.567 32.1305 149.056 32.312 148.353 32.312C147.65 32.312 147.128 32.0624 146.788 31.5632C146.47 31.0414 146.254 30.2473 146.141 29.181C146.027 28.1146 145.971 26.5491 145.971 24.4845C145.971 20.9905 146.322 17.349 147.026 13.5601C147.752 9.7711 148.807 6.59473 150.191 4.03095C151.597 1.44448 153.276 0.151245 155.228 0.151245C156.271 0.151245 157.111 0.605011 157.746 1.51254C158.404 2.39739 158.733 3.5545 158.733 4.98386C158.733 7.27538 158.064 9.65766 156.725 12.1307C155.386 14.581 153.208 17.4511 150.191 20.7409C150.123 21.9207 150.089 23.1345 150.089 24.3824C150.837 22.4539 151.666 20.8884 152.573 19.6859C153.503 18.4607 154.411 17.5872 155.296 17.0654C156.203 16.5436 157.031 16.2827 157.78 16.2827ZM154.513 3.52046C154.105 3.52046 153.651 4.11036 153.152 5.29015C152.652 6.44726 152.165 8.0241 151.688 10.0207C151.234 11.9946 150.86 14.1499 150.565 16.4868C151.972 14.8306 153.129 13.0269 154.036 11.0757C154.967 9.12448 155.432 7.35479 155.432 5.76661C155.432 5.04058 155.352 4.48472 155.194 4.09902C155.035 3.71332 154.808 3.52046 154.513 3.52046Z" fill="#9CA3AF"/>
</svg>
