<svg width="160" height="31" viewBox="0 0 160 31" fill="none" xmlns="http://www.w3.org/2000/svg">
<g clip-path="url(#clip0_2_300)">
<path d="M106.143 23.851C106.57 23.8535 106.988 23.7296 107.345 23.495C107.701 23.2604 107.979 22.9257 108.145 22.533C108.312 22.1404 108.357 21.7074 108.277 21.289C108.196 20.8706 107.992 20.4853 107.693 20.1821C107.393 19.8788 107.01 19.671 106.591 19.585C106.173 19.499 105.739 19.5387 105.343 19.6989C104.948 19.8592 104.609 20.1329 104.369 20.4854C104.129 20.838 103.999 21.2536 103.996 21.6796C103.994 21.963 104.048 22.2439 104.155 22.5065C104.261 22.769 104.419 23.0079 104.619 23.2096C104.817 23.4113 105.055 23.5717 105.317 23.6818C105.579 23.7919 105.859 23.8494 106.143 23.851Z" fill="#9CA3AF"/>
<path d="M117.102 23.9337C119.635 23.9337 121.92 22.6424 123.297 20.2789L121.067 18.905C120.694 19.6287 120.126 20.2337 119.426 20.6515C118.726 21.0692 117.923 21.283 117.108 21.2685C114.823 21.2685 112.922 19.7562 112.922 16.7606C112.922 13.6571 114.959 12.2005 117.191 12.2005C118.704 12.2005 119.998 12.919 121.073 14.2067L123.052 12.5023C121.814 10.8535 119.633 9.53528 117.189 9.53528C113.663 9.53528 110.171 12.2006 110.171 16.7606C110.163 21.2685 113.577 23.9337 117.102 23.9337Z" fill="#9CA3AF"/>
<path d="M143.231 11.8916L144.003 12.0568V9.61606H141.333V23.5206H144.169V14.9447C144.169 13.2673 145.214 12.0586 146.757 12.0586C148.27 12.0586 149.345 13.2673 149.345 14.9447V23.517H152.071V14.9447C152.071 13.2673 153.15 12.0586 154.603 12.0586C156.056 12.0586 157.054 13.1578 157.054 14.9447V23.517H160V14.7831C160 11.5683 158.021 9.39518 155.292 9.39518C153.557 9.39518 152.154 10.2465 151.153 11.6204C150.41 10.2465 149.033 9.39518 147.325 9.39518C146.478 9.38802 145.644 9.61812 144.92 10.0593C144.197 10.5006 143.611 11.1353 143.231 11.8916Z" fill="#9CA3AF"/>
<path d="M131.503 9.39697C127.4 9.39697 124.261 12.4196 124.261 16.624C124.261 20.8284 127.4 23.8511 131.503 23.8511C135.714 23.8511 138.606 20.7979 138.606 16.624C138.606 12.4502 135.714 9.39697 131.503 9.39697ZM131.584 21.1858C128.997 21.1858 127.015 19.2102 127.015 16.5414C127.015 13.8726 128.994 12.0623 131.584 12.0623C134.008 12.0623 135.853 13.8762 135.853 16.5414C135.853 19.2066 134.008 21.1858 131.584 21.1858Z" fill="#9CA3AF"/>
<path d="M95.0194 23.8511C96.2774 23.831 97.5086 23.4831 98.5905 22.842C99.6716 22.2009 100.567 21.2889 101.187 20.1962L99.0758 18.8223C98.6903 19.5548 98.1067 20.1647 97.3913 20.5825C96.6758 21.0003 95.8575 21.2094 95.0286 21.1858C92.8815 21.1858 90.9257 19.591 90.9257 16.624C90.9257 13.4918 92.8815 12.0623 95.0286 12.0623C96.6263 12.0623 97.9208 12.7214 99.0758 14.0953L100.949 12.4196C100.297 11.4921 99.4316 10.7338 98.4259 10.208C97.4202 9.68215 96.3025 9.40413 95.1673 9.39697C91.5878 9.39697 88.0625 12.0622 88.0625 16.624C88.0625 21.1858 91.4956 23.8511 95.0194 23.8511Z" fill="#9CA3AF"/>
<path d="M84.0617 7.17179C84.4899 7.17392 84.909 7.04906 85.2655 6.81307C85.6221 6.57708 85.901 6.2406 86.0655 5.84635C86.2301 5.45211 86.2743 5.01788 86.1912 4.59882C86.1082 4.17974 85.9025 3.79475 85.5992 3.49269C85.2968 3.19063 84.9112 2.98515 84.4914 2.90234C84.0716 2.81952 83.6358 2.86311 83.2412 3.02757C82.8457 3.19203 82.509 3.46992 82.2728 3.82599C82.0358 4.18205 81.9109 4.60022 81.9132 5.02739C81.9093 5.30999 81.9627 5.59047 82.0693 5.85228C82.176 6.11408 82.3337 6.35192 82.5341 6.55178C82.7345 6.75162 82.973 6.90944 83.2351 7.01593C83.4972 7.12241 83.7783 7.17541 84.0617 7.17179Z" fill="#9CA3AF"/>
<path d="M85.3829 9.83691H82.656V23.5206H85.3829V9.83691Z" fill="#9CA3AF"/>
<path d="M79.021 2.63684H76.0481V23.5206H79.021V2.63684Z" fill="#9CA3AF"/>
<path d="M66.7422 9.39689C64.6781 9.39689 63.1628 10.2482 62.3098 11.6221V2.64221H59.2811V23.5206H62.3098V21.7892C63.1628 23.0806 64.6781 23.851 66.7422 23.851C70.7014 23.851 73.4602 20.7978 73.4602 16.6239C73.4602 12.6674 70.5413 9.39689 66.7422 9.39689ZM66.5029 21.0511C63.7783 21.0511 61.9337 19.2102 61.9337 16.6275C61.9337 14.0988 63.7783 12.2041 66.5029 12.2041C68.954 12.2041 70.7158 13.9623 70.7158 16.6275C70.7068 19.2066 68.945 21.0511 66.5029 21.0511Z" fill="#9CA3AF"/>
<path d="M49.3688 23.7127C50.8283 23.7127 52.0394 23.0806 52.9482 21.7892V23.5206H55.7844V9.83691H52.8655V17.7501C52.8655 19.7562 51.6543 21.0475 49.6711 21.0475C47.9921 21.0475 47.0833 19.591 47.0833 17.7501V9.83691H44.1085V18.217C44.1085 21.4102 46.0917 23.7127 49.3688 23.7127Z" fill="#9CA3AF"/>
<path d="M35.0511 9.39697C33.0715 9.39697 31.5545 10.2482 30.3145 11.6222V9.83697H27.4243V28.4146H30.3145V21.7893C31.5545 23.0806 33.0679 23.8511 35.0511 23.8511C38.9886 23.8511 41.8248 20.5806 41.8248 16.624C41.8248 12.4196 38.9886 9.39697 35.0511 9.39697ZM34.6659 21.0511C31.8568 21.0511 30.1777 19.2102 30.1777 16.6276C30.1777 14.0988 31.8568 12.2041 34.6659 12.2041C37.3365 12.2041 38.985 14.0988 38.985 16.6276C38.9886 19.2066 37.3365 21.0511 34.6659 21.0511Z" fill="#9CA3AF"/>
<path d="M9.14202 18.5492C14.191 18.5492 18.284 14.457 18.284 9.4089C18.284 4.36082 14.191 0.268555 9.14202 0.268555C4.09303 0.268555 0 4.36082 0 9.4089C0 14.457 4.09303 18.5492 9.14202 18.5492Z" fill="#9CA3AF"/>
<path d="M4.57102 30.7447C5.47385 30.7447 6.35646 30.4774 7.10752 29.9765C7.85859 29.4755 8.4445 28.7635 8.79124 27.9301C9.13806 27.0966 9.23025 26.1792 9.05623 25.2935C8.88213 24.4077 8.44968 23.5934 7.81326 22.9531C7.17687 22.3129 6.36508 21.8753 5.4803 21.6957C4.59551 21.5161 3.67736 21.6025 2.84162 21.944C2.0059 22.2855 1.29003 22.8669 0.784312 23.6146C0.278598 24.3624 0.00568713 25.2431 0 26.1458C0.000448251 27.3603 0.481268 28.5255 1.33758 29.3871C2.1939 30.2486 3.35621 30.7366 4.57102 30.7447Z" fill="#9CA3AF"/>
</g>
<defs>
<clipPath id="clip0_2_300">
<rect width="160" height="30.4762" fill="white" transform="translate(0 0.268555)"/>
</clipPath>
</defs>
</svg>
