<svg width="160" height="35" viewBox="0 0 160 35" fill="none" xmlns="http://www.w3.org/2000/svg">
<g clip-path="url(#clip0_2_314)">
<path d="M30.5039 11.6615H12.6239C12.2829 11.6615 12.0063 11.94 12.0063 12.2837V14.3807C12.0063 14.7243 12.2829 15.0029 12.6239 15.0029H30.5039C30.845 15.0029 31.1215 14.7243 31.1215 14.3807V12.2837C31.1215 11.94 30.845 11.6615 30.5039 11.6615Z" fill="#9CA3AF"/>
<path d="M18.6768 20.0105H0.796854C0.455766 20.0105 0.17926 20.289 0.17926 20.6327V22.7297C0.17926 23.0733 0.455766 23.3519 0.796854 23.3519H18.6768C19.0179 23.3519 19.2944 23.0733 19.2944 22.7297V20.6327C19.2944 20.289 19.0179 20.0105 18.6768 20.0105Z" fill="#9CA3AF"/>
<path fill-rule="evenodd" clip-rule="evenodd" d="M2.47256 13.9477C2.62942 13.9885 2.7959 13.9659 2.93636 13.8845C3.07681 13.8032 3.18008 13.6697 3.22404 13.5127C4.2141 10.3907 6.32626 7.75402 9.14627 6.11971C11.9663 4.4854 15.2906 3.97139 18.4674 4.67849C18.6211 4.7104 18.7811 4.68172 18.9145 4.59836C19.0479 4.515 19.1444 4.38329 19.1843 4.23036L19.7242 2.20075C19.7453 2.11927 19.7498 2.03433 19.7375 1.95104C19.7252 1.86775 19.6963 1.78783 19.6525 1.71609C19.6087 1.64436 19.551 1.58228 19.4828 1.5336C19.4146 1.48492 19.3373 1.45065 19.2556 1.43284C15.2411 0.522549 11.0336 1.16966 7.47168 3.24519C3.90976 5.32072 1.25506 8.67222 0.0367389 12.6316C0.0138008 12.7111 0.00681145 12.7943 0.0161796 12.8764C0.0255477 12.9586 0.0510852 13.0381 0.0912987 13.1102C0.131512 13.1823 0.185594 13.2456 0.250382 13.2964C0.31517 13.3472 0.389363 13.3845 0.468623 13.4061L2.47256 13.9477Z" fill="#9CA3AF"/>
<path fill-rule="evenodd" clip-rule="evenodd" d="M28.8326 21.0569C28.6745 21.0141 28.5061 21.0357 28.3638 21.1172C28.2215 21.1986 28.1168 21.3333 28.0725 21.492C27.0845 24.6159 24.9733 27.2551 22.153 28.8916C19.3328 30.5281 16.0073 31.0436 12.8291 30.337C12.6753 30.3046 12.5151 30.333 12.3816 30.4164C12.2481 30.4999 12.1516 30.6319 12.1122 30.7851L11.5831 32.8039C11.5617 32.8855 11.5569 32.9707 11.5691 33.0542C11.5812 33.1377 11.6101 33.2179 11.6539 33.2899C11.6977 33.3619 11.7555 33.4242 11.8239 33.473C11.8923 33.5218 11.9698 33.5562 12.0517 33.574C16.0663 34.4821 20.2731 33.8337 23.8346 31.7581C27.3961 29.6824 30.0509 26.3317 31.2706 22.373C31.2938 22.2937 31.301 22.2106 31.2917 22.1284C31.2825 22.0463 31.2569 21.9669 31.2167 21.8949C31.1764 21.8229 31.1222 21.7597 31.0573 21.7092C30.9923 21.6587 30.918 21.6218 30.8387 21.6007L28.8326 21.0569Z" fill="#9CA3AF"/>
<path d="M25.1011 7.99376C26.1052 7.99376 26.9193 7.1737 26.9193 6.1621C26.9193 5.15051 26.1052 4.33044 25.1011 4.33044C24.0969 4.33044 23.2828 5.15051 23.2828 6.1621C23.2828 7.1737 24.0969 7.99376 25.1011 7.99376Z" fill="#9CA3AF"/>
<path d="M6.20403 30.6807C7.20822 30.6807 8.02227 29.8606 8.02227 28.849C8.02227 27.8374 7.20822 27.0173 6.20403 27.0173C5.19985 27.0173 4.3858 27.8374 4.3858 28.849C4.3858 29.8606 5.19985 30.6807 6.20403 30.6807Z" fill="#9CA3AF"/>
<path fill-rule="evenodd" clip-rule="evenodd" d="M75.6509 14.1848C76.3139 13.4514 77.124 12.8681 78.0274 12.4736C78.9309 12.0791 79.9073 11.8824 80.8919 11.8964C82.8051 11.8964 84.2951 12.4924 85.2366 13.6367V12.6882C85.2428 12.5571 85.297 12.433 85.3887 12.3398C85.4804 12.2466 85.6032 12.1909 85.7333 12.1835H88.2555C88.3854 12.1914 88.5079 12.2472 88.5995 12.3403C88.6911 12.4334 88.7455 12.5573 88.7521 12.6882V26.7955C88.8304 28.7861 88.2197 30.7423 87.0246 32.3296C85.6642 33.9959 83.5998 34.84 80.8875 34.84C77.1172 34.84 74.1415 32.4362 73.6513 29.0035C73.6394 28.8796 73.6709 28.7555 73.7403 28.6526C73.8097 28.5497 73.9127 28.4745 74.0314 28.44L76.4953 27.857C76.5082 27.856 76.5212 27.856 76.5341 27.857C76.5984 27.8472 76.664 27.8502 76.7271 27.866C76.7901 27.8819 76.8495 27.9101 76.9017 27.9491C76.9539 27.9882 76.9979 28.0372 77.0312 28.0935C77.0645 28.1497 77.0864 28.2121 77.0956 28.2769C77.2056 29.2056 77.6557 30.0596 78.3579 30.6716C79.06 31.2836 79.9637 31.6095 80.8919 31.5856C83.8373 31.5856 85.2107 30.0629 85.2107 26.8803V25.6447C84.6702 26.2548 84.0032 26.7379 83.2569 27.0596C82.5106 27.3814 81.7032 27.5341 80.8919 27.5068C76.7004 27.5068 73.66 24.2285 73.66 19.7168C73.6227 17.6884 74.3319 15.7179 75.6509 14.1848ZM124.56 11.7028H124.691C129.198 11.7637 131.99 14.9245 131.99 19.9822C131.99 20.2504 131.975 20.5183 131.947 20.7849C131.933 20.9043 131.876 21.0144 131.787 21.0945C131.698 21.1746 131.583 21.2193 131.463 21.22H120.75C120.783 22.3094 121.239 23.3423 122.021 24.0957C122.803 24.8491 123.847 25.2625 124.929 25.2466C125.776 25.2999 126.616 25.0625 127.312 24.573C128.009 24.0835 128.519 23.3709 128.762 22.5513C128.807 22.4315 128.896 22.3336 129.01 22.2781C129.125 22.2226 129.256 22.2137 129.377 22.2533L131.509 23.0147C131.57 23.0349 131.627 23.0681 131.675 23.1119C131.723 23.1558 131.761 23.2094 131.787 23.2692C131.816 23.327 131.834 23.39 131.838 23.4547C131.843 23.5194 131.834 23.5843 131.813 23.6455C131.33 25.0884 130.399 26.3365 129.158 27.206C127.917 28.0755 126.431 28.5203 124.92 28.4748C123.913 28.4847 122.915 28.2933 121.982 27.9117C121.049 27.5301 120.2 26.9658 119.485 26.2516C118.705 25.4249 118.096 24.4494 117.695 23.3825C117.294 22.3156 117.109 21.1788 117.151 20.0388C117.151 14.8179 120.917 11.6919 124.555 11.6919L124.56 11.7028ZM63.9491 11.7028C68.5357 11.7028 71.3861 14.8766 71.3861 19.9844C71.3857 20.2525 71.3713 20.5205 71.3429 20.7871C71.3301 20.9071 71.2735 21.018 71.1841 21.0984C71.0948 21.1787 70.979 21.2229 70.8592 21.2222H60.1463C60.1763 22.3177 60.6352 23.3568 61.4228 24.1128C62.2105 24.8688 63.263 25.2803 64.3507 25.2575C65.1981 25.3116 66.0387 25.0745 66.7349 24.5849C67.4312 24.0953 67.9419 23.3822 68.1837 22.5622C68.2272 22.4413 68.316 22.3424 68.431 22.2867C68.5461 22.231 68.6782 22.2229 68.7991 22.2642L70.9391 23.0234C71.0008 23.0434 71.0576 23.0764 71.1057 23.1203C71.1537 23.1642 71.1919 23.2179 71.2177 23.2779C71.2422 23.3375 71.2548 23.4015 71.2548 23.4661C71.2548 23.5306 71.2422 23.5946 71.2177 23.6542C70.7344 25.0963 69.8042 26.344 68.564 27.2134C67.3239 28.0828 65.8394 28.5281 64.3291 28.4835C63.3205 28.4945 62.3197 28.3036 61.3848 27.922C60.4499 27.5404 59.5996 26.9755 58.8831 26.2603C58.1041 25.4326 57.4966 24.457 57.0958 23.3903C56.695 22.3237 56.509 21.1873 56.5487 20.0475C56.5487 14.8266 60.3148 11.7006 63.9555 11.7006L63.9491 11.7028ZM47.7232 11.7028C49.7811 11.7028 51.446 12.2053 52.679 13.1994C53.5117 13.8684 54.1293 14.7706 54.4541 15.7924C54.4643 15.8359 54.4659 15.8809 54.4587 15.925C54.4515 15.969 54.4356 16.0112 54.4121 16.049C54.3886 16.0869 54.3579 16.1196 54.3217 16.1454C54.2856 16.1712 54.2447 16.1895 54.2014 16.1992L51.6468 17.0498C51.5335 17.0933 51.4082 17.0933 51.2949 17.0498C51.2467 17.0274 51.2038 16.9948 51.1691 16.9543C51.1345 16.9138 51.1089 16.8662 51.094 16.8149C50.8781 15.9817 50.1352 14.5829 47.7189 14.5829C46.0323 14.5829 45.0217 15.5575 45.0217 16.5016C45.0217 17.1281 45.3435 17.9352 46.8637 18.2267L49.671 18.7575C52.8086 19.3949 54.6052 21.1243 54.6052 23.5324V23.4911C54.6052 25.884 52.3206 28.44 48.0752 28.44C43.1517 28.44 41.2168 25.6338 40.8605 23.9784C40.8487 23.8919 40.8688 23.8041 40.917 23.7315C40.9651 23.6589 41.038 23.6067 41.1218 23.5846L43.7563 22.758C43.8034 22.7493 43.8517 22.7493 43.8988 22.758C43.9741 22.7566 44.0484 22.7746 44.1148 22.8102C44.1626 22.8333 44.2047 22.8668 44.2383 22.9081C44.2719 22.9494 44.2961 22.9977 44.3091 23.0495C44.6417 24.6418 46.0691 25.5903 48.1227 25.5903C50.0338 25.5903 50.904 24.5831 50.904 23.6695C50.904 22.7558 50.1288 22.0836 48.7964 21.8139L45.8423 21.2352C43.0869 20.711 41.3702 18.9859 41.3702 16.7409C41.3702 14.0086 44.2832 11.7028 47.7232 11.7028ZM156.245 7.27588C156.379 7.2842 156.505 7.34377 156.597 7.44242C156.689 7.54108 156.74 7.67137 156.739 7.80667V12.1574H159.51C159.643 12.1673 159.767 12.2275 159.858 12.3259C159.949 12.4243 160 12.5537 160 12.6882V15.0071C160.001 15.1391 159.949 15.2659 159.858 15.36C159.766 15.4542 159.641 15.5079 159.51 15.5096H156.739V23.2518C156.739 24.5352 157.245 25.066 158.545 25.066C158.841 25.061 159.137 25.0363 159.43 24.9921C159.501 24.9799 159.574 24.9835 159.643 25.0027C159.712 25.0218 159.777 25.0561 159.832 25.103C159.884 25.152 159.926 25.2112 159.955 25.277C159.984 25.3428 159.999 25.4139 160 25.4859V27.6613C160.001 27.7695 159.967 27.8751 159.903 27.9622C159.839 28.0493 159.749 28.1131 159.646 28.1442C159.014 28.3228 158.359 28.4085 157.702 28.3987C154.925 28.3987 153.204 26.5997 153.204 23.6977V15.5423H150.807C150.678 15.5344 150.555 15.4785 150.464 15.3853C150.373 15.2922 150.319 15.1683 150.313 15.0376V12.7143C150.312 12.5788 150.363 12.4483 150.455 12.3495C150.547 12.2507 150.673 12.1913 150.807 12.1835H151.429C152.183 12.1835 153.453 11.9181 153.453 10.1082V7.80667C153.452 7.67122 153.503 7.54063 153.595 7.44186C153.687 7.3431 153.813 7.28368 153.947 7.27588H156.245ZM104.246 14.2958C104.788 13.4619 105.535 12.7844 106.416 12.3297C107.296 11.8751 108.278 11.659 109.267 11.7028C112.005 11.7028 114.771 13.6454 114.771 17.8895V27.7135C114.764 27.8444 114.71 27.9683 114.618 28.0614C114.527 28.1545 114.404 28.2103 114.274 28.2181H111.75C111.62 28.2098 111.498 28.1537 111.407 28.0607C111.316 27.9676 111.262 27.844 111.255 27.7135V18.2049C111.255 17.0019 110.882 14.9745 108.353 14.9745C106.505 14.9745 105.192 16.4385 105.192 18.5617V27.7135C105.186 27.8442 105.132 27.968 105.04 28.0612C104.949 28.1544 104.827 28.2102 104.697 28.2181H102.141C102.011 28.2103 101.888 28.1545 101.797 28.0614C101.705 27.9683 101.651 27.8444 101.644 27.7135V18.2049C101.648 17.0019 101.277 14.9658 98.7459 14.9658C96.8241 14.9658 95.5284 16.419 95.5284 18.5834V27.7135C95.5218 27.844 95.4677 27.9676 95.3766 28.0607C95.2854 28.1537 95.1634 28.2098 95.0339 28.2181H92.5117C92.3828 28.2092 92.2616 28.1529 92.1712 28.0598C92.0808 27.9668 92.0276 27.8435 92.0215 27.7135V12.6556C92.028 12.5257 92.0814 12.4027 92.1717 12.3097C92.262 12.2168 92.3829 12.1603 92.5117 12.1509H94.9389C95.0684 12.1592 95.1904 12.2153 95.2815 12.3083C95.3727 12.4014 95.4268 12.525 95.4334 12.6556V13.5627C95.974 12.9669 96.6338 12.4931 97.3692 12.1725C98.1047 11.8519 98.8991 11.6918 99.7004 11.7028C100.621 11.6756 101.531 11.9029 102.333 12.36C103.134 12.8172 103.796 13.4866 104.246 14.2958ZM142.707 11.7028C143.515 11.668 144.319 11.8185 145.06 12.143C145.801 12.4675 146.46 12.9574 146.985 13.5757C147.966 14.8759 148.464 16.4802 148.395 18.1114V27.7135C148.39 27.8433 148.337 27.9666 148.247 28.0597C148.157 28.1527 148.036 28.2092 147.907 28.2181H145.353C145.223 28.2098 145.101 28.1539 145.009 28.0608C144.918 27.9678 144.863 27.8442 144.856 27.7135V18.6248C144.856 16.2471 143.746 15.0376 141.638 15.0376C141.18 15.0227 140.724 15.1167 140.308 15.3121C139.892 15.5075 139.527 15.7987 139.244 16.1623C138.672 16.9902 138.384 17.9827 138.421 18.9902V27.7135C138.414 27.844 138.36 27.9676 138.269 28.0607C138.178 28.1537 138.056 28.2098 137.926 28.2181H135.376C135.247 28.2098 135.125 28.1537 135.034 28.0607C134.942 27.9676 134.888 27.844 134.882 27.7135V12.6447C134.887 12.5134 134.94 12.3888 135.032 12.295C135.123 12.2013 135.246 12.1453 135.376 12.1378H137.868C137.997 12.1462 138.118 12.2021 138.208 12.2948C138.299 12.3875 138.352 12.5105 138.358 12.6403V13.7019C138.887 13.0598 139.552 12.5464 140.305 12.2001C141.059 11.8539 141.88 11.6839 142.707 11.7028ZM81.3302 15.0702C78.8426 15.0702 77.264 16.8518 77.264 19.7168C77.264 22.5818 78.8231 24.3612 81.3302 24.3612C83.7207 24.3612 85.3316 22.4926 85.3316 19.7168C85.3316 16.941 83.7207 15.0702 81.3302 15.0702ZM63.975 14.9266C63.0571 14.9107 62.1663 15.2403 61.477 15.8511C60.7876 16.4618 60.3493 17.3097 60.2478 18.2289H67.741C67.5618 16.1905 66.1236 14.9266 63.975 14.9266ZM124.601 14.9266C123.684 14.9123 122.794 15.2426 122.106 15.8531C121.418 16.4637 120.98 17.3107 120.878 18.2289H128.373C128.187 16.1905 126.758 14.9266 124.599 14.9266H124.601Z" fill="#9CA3AF"/>
<path d="M45.0865 1.51988V6.57978H43.6635V1.51988H41.6962V0.292969H47.0753V1.51988H45.0865Z" fill="#9CA3AF"/>
<path d="M55.9571 6.60154H54.4779L53.1217 1.968L51.7419 6.60154H50.2929L48.4574 0.292969H49.969L51.1329 4.83731L52.4458 0.292969H53.9574L55.2531 4.83731L56.3803 0.292969H57.771L55.9571 6.60154Z" fill="#9CA3AF"/>
<path d="M59.7296 6.57978V0.292969H61.131V6.57978H59.7296Z" fill="#9CA3AF"/>
<path d="M63.6532 6.57978V0.292969H65.0763V5.342H67.5121V6.57978H63.6532Z" fill="#9CA3AF"/>
<path d="M69.6326 6.57978V0.292969H71.0449V6.57978H69.6326Z" fill="#9CA3AF"/>
<path d="M76.329 6.69943C74.6014 6.69943 73.2194 5.45077 73.2194 3.44726C73.2194 1.44374 74.6209 0.184204 76.3398 0.184204C78.0587 0.184204 79.4472 1.43287 79.4472 3.44726C79.4472 5.46165 78.0565 6.69943 76.329 6.69943ZM76.329 1.33497C75.2493 1.33497 74.6209 2.23123 74.6209 3.43638C74.6209 4.64153 75.2687 5.54866 76.329 5.54866C77.3893 5.54866 78.0133 4.63066 78.0133 3.44726C78.0133 2.26386 77.3828 1.33497 76.3398 1.33497H76.329Z" fill="#9CA3AF"/>
</g>
<defs>
<clipPath id="clip0_2_314">
<rect width="160" height="34.6667" fill="white" transform="translate(0 0.17334)"/>
</clipPath>
</defs>
</svg>
