<svg width="160" height="21" viewBox="0 0 160 21" fill="none" xmlns="http://www.w3.org/2000/svg">
<g clip-path="url(#clip0_2_328)">
<path d="M54.8417 17.6095V20.7331H43.4182V17.6095H47.2334V3.15148H43.4182V0.027832H51.0711V17.6095H54.8417Z" fill="#9CA3AF"/>
<path d="M68.519 17.6095V20.7331H57.0954V17.6095H60.8883V3.15148H57.0954V0.027832H64.7484V17.6095H68.519Z" fill="#9CA3AF"/>
<path d="M73.0925 20.7332V8.68483H69.4556V5.56117H73.0925V4.33402C73.0925 1.54506 74.5427 0.0501709 77.5326 0.0501709H81.8387V3.10689H78.1573C77.2201 3.10689 76.8408 3.50849 76.8408 4.42328V5.53887H81.8387V8.66252H76.8854V20.7109H73.0925V20.7332Z" fill="#9CA3AF"/>
<path d="M90.786 5.38257C86.1674 5.38257 83.0438 8.50622 83.0438 13.1471C83.0438 17.7879 86.1674 20.9116 90.786 20.9116C95.4046 20.9116 98.5505 17.8102 98.5505 13.1471C98.5505 8.48391 95.4269 5.38257 90.786 5.38257ZM90.786 17.7433C88.4656 17.7433 86.9485 15.8245 86.9485 13.1247C86.9485 10.425 88.4656 8.50622 90.786 8.50622C93.1065 8.50622 94.6461 10.425 94.6461 13.1247C94.6461 15.8468 93.1288 17.7433 90.786 17.7433Z" fill="#9CA3AF"/>
<path d="M111.38 5.56116H115.195V20.7331H111.469V18.8813C110.51 20.0192 109.171 20.9116 107.052 20.9116C103.973 20.9116 101.183 19.3275 101.183 14.1289V5.56116H104.999V13.8165C104.999 16.3377 105.913 17.7434 108.011 17.7434C110.108 17.7434 111.38 16.2039 111.38 13.4595V5.56116Z" fill="#9CA3AF"/>
<path d="M147.145 0.027832V7.36841C146.186 6.18587 144.691 5.36034 142.638 5.36034C138.644 5.36034 135.566 8.41706 135.566 13.1025C135.566 17.788 138.533 20.8893 142.571 20.8893C144.78 20.8893 146.275 19.8407 147.257 18.5243V20.7108H150.983V0.027832H147.145ZM143.33 17.7434C140.965 17.7434 139.448 15.8469 139.448 13.1248C139.448 10.4028 140.965 8.5063 143.33 8.5063C145.695 8.5063 147.19 10.4028 147.19 13.1472C147.19 15.8692 145.673 17.7434 143.33 17.7434Z" fill="#9CA3AF"/>
<path d="M4.70779 20.7331L0 5.56116H4.37309L7.16207 16.4716L10.1742 5.56116H14.5696L17.5817 16.4716L20.3706 5.56116H24.7437L19.969 20.7331H15.3059L12.3607 9.77808L9.39324 20.7331H4.70779Z" fill="#9CA3AF"/>
<path d="M157.231 20.8893C158.636 20.8893 159.775 19.7506 159.775 18.3458C159.775 16.941 158.636 15.8022 157.231 15.8022C155.827 15.8022 154.688 16.941 154.688 18.3458C154.688 19.7506 155.827 20.8893 157.231 20.8893Z" fill="#9CA3AF"/>
<path d="M157.231 10.4698C158.636 10.4698 159.775 9.33099 159.775 7.92624C159.775 6.52148 158.636 5.38269 157.231 5.38269C155.827 5.38269 154.688 6.52148 154.688 7.92624C154.688 9.33099 155.827 10.4698 157.231 10.4698Z" fill="#9CA3AF"/>
<path d="M41.1655 14.0173C41.2324 13.5488 41.2771 12.991 41.2771 12.634C41.2324 8.17162 38.2427 5.36035 33.8249 5.36035C29.4071 5.36035 26.2389 8.43936 26.2389 13.1471C26.2389 17.8549 29.2286 20.8893 34.0926 20.8893C38.0196 20.8893 40.5852 18.5466 41.054 15.5791H37.2831C36.9039 17.0963 35.6768 17.9219 33.9364 17.9219C31.7498 17.9219 30.2997 16.4716 30.2105 14.1735V13.995H41.1655V14.0173ZM33.8249 8.28319C35.7438 8.28319 37.06 9.35415 37.3947 11.3176H30.322C30.5897 9.44339 32.0176 8.28319 33.8249 8.28319Z" fill="#9CA3AF"/>
<path d="M122.737 20.7332H118.922V5.56119H122.648V7.41307C123.607 6.27515 124.946 5.38269 127.065 5.38269C130.144 5.38269 132.933 6.96683 132.933 12.1655V20.7332H129.118V12.4555C129.118 9.93428 128.203 8.52865 126.106 8.52865C124.009 8.52865 122.737 10.0682 122.737 12.8125V20.7332Z" fill="#9CA3AF"/>
</g>
<defs>
<clipPath id="clip0_2_328">
<rect width="160" height="20.9577" fill="white" transform="translate(0 0.027832)"/>
</clipPath>
</defs>
</svg>
